<!-- Generated by IcoMoon.io -->
<svg version="1.1" xmlns="http://www.w3.org/2000/svg" width="768" height="768" viewBox="0 0 768 768">
<title></title>
<g id="icomoon-ignore">
</g>
<path fill="#FF6D00" d="M38.4 422.4h691.199c21.197 0 38.4-17.204 38.4-38.4s-17.203-38.4-38.4-38.4h-691.199c-21.197 0-38.4 17.203-38.4 38.4s17.203 38.4 38.4 38.4zM38.4 192.001h691.199c21.197 0 38.4-17.203 38.4-38.4s-17.203-38.4-38.4-38.4h-691.199c-21.197 0-38.4 17.203-38.4 38.4s17.203 38.4 38.4 38.4zM38.4 652.8h691.199c21.197 0 38.4-17.203 38.4-38.4s-17.203-38.4-38.4-38.4h-691.199c-21.197 0-38.4 17.203-38.4 38.4s17.203 38.4 38.4 38.4z"></path>
</svg>
