<!-- Generated by IcoMoon.io -->
<svg version="1.1" xmlns="http://www.w3.org/2000/svg" width="768" height="768" viewBox="0 0 768 768">
<title></title>
<g id="icomoon-ignore">
</g>
<path fill="#FF6D00" d="M384 0c-209.061 0-379.094 167.072-383.886 374.981 4.44-181.398 142.374-326.981 311.886-326.981 172.313 0 312 150.432 312 336 0 39.765 32.235 72 72 72s72-32.235 72-72c0-212.077-171.923-384-384-384zM384 768c209.061 0 379.094-167.072 383.886-374.98-4.44 181.398-142.374 326.98-311.886 326.98-172.313 0-312-150.432-312-336 0-39.765-32.235-72-72-72s-72 32.235-72 72c0 212.077 171.922 384 384 384z"></path>
</svg>
