<!-- Generated by IcoMoon.io -->
<svg version="1.1" xmlns="http://www.w3.org/2000/svg" width="768" height="768" viewBox="0 0 768 768">
<title></title>
<g id="icomoon-ignore">
</g>
<path fill="#ff6d00" d="M77.407 142.042l241.958 241.958-241.958 241.958c-17.873 17.873-17.873 46.809 0 64.639s46.809 17.873 64.639 0l241.958-241.958 241.958 241.958c17.873 17.873 46.809 17.873 64.639 0s17.873-46.809 0-64.639l-241.958-241.958 241.958-241.958c17.873-17.872 17.873-46.809 0-64.639s-46.809-17.873-64.639 0l-241.958 241.958-241.958-241.958c-17.872-17.873-46.809-17.873-64.639 0s-17.873 46.809 0 64.639z"></path>
</svg>
