<!-- Generated by IcoMoon.io -->
<svg version="1.1" xmlns="http://www.w3.org/2000/svg" width="32" height="32" viewBox="0 0 32 32">
<title>menu</title>
<path fill="#ff6d00" d="M1.6 17.6h28.8c0.883 0 1.6-0.717 1.6-1.6s-0.717-1.6-1.6-1.6h-28.8c-0.883 0-1.6 0.717-1.6 1.6s0.717 1.6 1.6 1.6zM1.6 8h28.8c0.883 0 1.6-0.717 1.6-1.6s-0.717-1.6-1.6-1.6h-28.8c-0.883 0-1.6 0.717-1.6 1.6s0.717 1.6 1.6 1.6zM1.6 27.2h28.8c0.883 0 1.6-0.717 1.6-1.6s-0.717-1.6-1.6-1.6h-28.8c-0.883 0-1.6 0.717-1.6 1.6s0.717 1.6 1.6 1.6z"></path>
</svg>
