<!-- Generated by IcoMoon.io -->
<svg version="1.1" xmlns="http://www.w3.org/2000/svg" width="30" height="32" viewBox="0 0 30 32">
<title>star-o</title>
<path fill="#f77f00" d="M20.304 19.262l5.465-5.304-7.537-1.107-3.376-6.823-3.376 6.823-7.537 1.107 5.465 5.304-1.304 7.519 6.751-3.554 6.733 3.554zM29.717 12.886c0 0.322-0.232 0.625-0.464 0.857l-6.483 6.322 1.536 8.93c0.018 0.125 0.018 0.232 0.018 0.357 0 0.482-0.214 0.893-0.732 0.893-0.25 0-0.5-0.089-0.714-0.214l-8.019-4.215-8.019 4.215c-0.232 0.125-0.464 0.214-0.714 0.214-0.518 0-0.75-0.429-0.75-0.893 0-0.125 0.018-0.232 0.036-0.357l1.536-8.93-6.501-6.322c-0.214-0.232-0.447-0.536-0.447-0.857 0-0.536 0.554-0.75 1-0.822l8.966-1.304 4.018-8.126c0.161-0.339 0.464-0.732 0.875-0.732s0.714 0.393 0.875 0.732l4.018 8.126 8.966 1.304c0.429 0.071 1 0.286 1 0.822z"></path>
</svg>
