<!-- Generated by IcoMoon.io -->
<svg version="1.1" xmlns="http://www.w3.org/2000/svg" width="32" height="32" viewBox="0 0 32 32">
<title>trash</title>
<path fill="#ff6d00" d="M24.727 8.727v18.909c0 0.401-0.161 0.764-0.426 1.028s-0.627 0.426-1.028 0.426h-14.545c-0.401 0-0.764-0.161-1.028-0.426s-0.426-0.627-0.426-1.028v-18.909zM23.273 5.818v-1.455c0-1.204-0.49-2.298-1.279-3.085s-1.881-1.279-3.085-1.279h-5.818c-1.204 0-2.298 0.49-3.085 1.279s-1.279 1.881-1.279 3.085v1.455h-5.818c-0.803 0-1.455 0.652-1.455 1.455s0.652 1.455 1.455 1.455h1.455v18.909c0 1.204 0.49 2.298 1.279 3.085s1.881 1.279 3.085 1.279h14.545c1.204 0 2.298-0.49 3.085-1.279s1.279-1.881 1.279-3.085v-18.909h1.455c0.803 0 1.455-0.652 1.455-1.455s-0.652-1.455-1.455-1.455zM11.636 5.818v-1.455c0-0.401 0.161-0.764 0.426-1.028s0.627-0.426 1.028-0.426h5.818c0.401 0 0.764 0.161 1.028 0.426s0.426 0.627 0.426 1.028v1.455zM11.636 14.545v8.727c0 0.803 0.652 1.455 1.455 1.455s1.455-0.652 1.455-1.455v-8.727c0-0.803-0.652-1.455-1.455-1.455s-1.455 0.652-1.455 1.455zM17.455 14.545v8.727c0 0.803 0.652 1.455 1.455 1.455s1.455-0.652 1.455-1.455v-8.727c0-0.803-0.652-1.455-1.455-1.455s-1.455 0.652-1.455 1.455z"></path>
</svg>
